<?xml version="1.0" encoding="utf-8"?>
<!-- Generator: Adobe Illustrator 23.0.3, SVG Export Plug-In . SVG Version: 6.00 Build 0)  -->
<svg version="1.1" id="Capa_1" xmlns="http://www.w3.org/2000/svg" xmlns:xlink="http://www.w3.org/1999/xlink" x="0px" y="0px"
	 viewBox="0 0 512 512" style="enable-background:new 0 0 512 512;" xml:space="preserve">
<style type="text/css">
	.st0{fill:#D38C0D;}
	.st1{fill:#EFBB67;}
	.st2{fill:#704A0E;}
	.st3{fill:#513307;}
	.st4{fill:#2D1C05;}
	.st5{fill:#0DD396;}
</style>
<g>
	<polygon class="st0" points="336.72,231.99 512.24,130.16 336.72,29.15 162.03,131.81 	"/>
	<g>
		<polygon class="st1" points="176.11,231.99 349.97,130.99 176.11,29.15 -0.24,130.99 		"/>
		<polygon class="st1" points="430.27,381.01 256.41,482.85 82.55,381.01 82.55,178.18 256.41,76.34 430.27,178.18 		"/>
	</g>
	<polyline class="st0" points="256.41,76.34 430.27,178.18 430.27,381.01 256.41,482.85 	"/>
	<polygon class="st1" points="337.55,325.54 512.24,225.37 336.72,123.54 161.21,225.37 	"/>
	<polygon class="st0" points="176.11,327.2 350.79,224.54 176.11,123.54 -0.24,225.37 	"/>
	<polygon class="st2" points="257.24,280.01 430.27,178.18 257.24,76.34 80.9,178.18 	"/>
	<polyline class="st3" points="257.24,280.01 430.27,178.18 257.24,76.34 	"/>
	<polygon class="st4" points="257.24,280.01 294.5,257.66 257.24,236.13 219.99,257.66 	"/>
	<g>
		<polygon class="st5" points="380.6,392.6 421.99,368.59 421.99,355.35 380.6,379.36 		"/>
		<polygon class="st5" points="380.6,368.59 421.99,344.59 421.99,331.34 380.6,355.35 		"/>
		<polygon class="st5" points="380.6,344.59 421.99,320.58 421.99,306.5 380.6,331.34 		"/>
	</g>
</g>
</svg>
