<?xml version="1.0" encoding="utf-8"?>
<!-- Generator: Adobe Illustrator 23.0.3, SVG Export Plug-In . SVG Version: 6.00 Build 0)  -->
<svg version="1.1" id="fe93ff64-a18b-49f4-bb52-e425cf20d0d6"
	 xmlns="http://www.w3.org/2000/svg" xmlns:xlink="http://www.w3.org/1999/xlink" x="0px" y="0px" viewBox="0 0 1050 594"
	 style="enable-background:new 0 0 1050 594;" xml:space="preserve">
<style type="text/css">
	.st0{opacity:0.1;fill:#00D1B2;enable-background:new    ;}
	.st1{fill:#D0D2D5;}
	.st2{opacity:0.1;enable-background:new    ;}
	.st3{fill:#3F3D56;}
	.st4{fill:#FFFFFF;}
	.st5{fill:#00D1B2;}
	.st6{fill:#E6E8EC;}
	.st7{fill:#393859;}
	.st8{fill:#FFBFC5;}
	.st9{fill:#F2B5BA;}
	.st10{fill:#FF6F61;}
	.st11{opacity:0.3;fill:#00D1B2;enable-background:new    ;}
</style>
<title>posting photo</title>
<ellipse class="st0" cx="525" cy="561" rx="525" ry="33"/>
<polygon class="st1" points="497.1,550 318.9,547.7 319.4,543.1 328,467.8 484.5,467.8 496,543.1 496.9,548.8 "/>
<polygon class="st2" points="496.9,548.8 408,548.8 318.9,547.7 319.4,543.1 496,543.1 "/>
<rect x="289.2" y="544.3" class="st1" width="236.5" height="5.7"/>
<path class="st3" d="M751.2,14.9c0-8.2-6.6-14.9-14.8-14.9H76.1c-8.2,0-14.8,6.7-14.8,14.9c0,0,0,0,0,0v400.3h689.9V14.9z"/>
<path class="st1" d="M61.3,411.2v46.9c0,8.2,6.6,14.8,14.8,14.8h660.3c8.2,0,14.8-6.6,14.8-14.8v-46.9H61.3z"/>
<rect x="89.9" y="25.1" class="st4" width="636.2" height="359.8"/>
<path class="st5" d="M409.7,455.1c4.7,0,9.2-2.2,12.1-5.9l0,0c0.4-0.6,0.8-1.1,1.2-1.8l-8.5-1.5l9.1,0.1c1.8-3.9,1.9-8.3,0.3-12.2
	l-12.3,6.4l11.3-8.3c-4.3-7.4-13.7-9.9-21.1-5.6s-9.9,13.7-5.6,21.1c0.4,0.6,0.8,1.2,1.2,1.8l0,0C400.5,452.9,405,455.1,409.7,455.1
	z"/>
<polygon class="st2" points="425.1,472.9 496.2,544.3 485.3,472.9 "/>
<path class="st0" d="M634.9,211.1c0-0.1,0-0.1,0-0.2c-0.2-5-1.1-9.9-2.7-14.6c-0.1-0.3-0.2-0.5-0.3-0.8c-3.9-11.4-11.4-21.2-21.3-28
	c-23-15.7-54.2-11.8-72.7,9c-0.9-5.3-2.4-10.5-4.4-15.5c-14.6,1.8-29.3,2.4-44,1.6c9,4.2,18.3,7.5,27.9,10.1l-0.3,1.3
	c-10.7-2.9-21.2-6.8-31.2-11.7l-3-1.5l3.4,0.2c15.6,1,31.3,0.6,46.8-1.4c-3.4-8-8-15.4-13.8-21.9c-25.2-2.5-50.2-7.8-73.5-18.3
	l0.5-1.2c22.7,10.2,47,15.5,71.6,18c-29.6-31.8-79.4-33.5-111.1-3.9c-5.4,5-10.1,10.8-13.9,17.2c-2.4-22.5-11.8-43.8-26.8-60.7
	c-13.4,5.4-27.3,9.6-41.5,12.6c-21.3,4.5-43.1,6.2-64.8,5.1c9,4.2,18.3,7.5,27.9,10.1l-0.3,1.3c-10.7-2.9-21.2-6.8-31.2-11.7l-3-1.5
	l3.4,0.2c37,2.4,74.1-3.4,108.6-17.2c-1.3-1.4-2.6-2.8-4-4.2c-43.1,0.9-90,0.4-132.4-15c-32,19.7-51.4,54.6-51.4,92.2
	c0,20.3,5.6,48.3,15.3,76.3c4.3,12.5,9.4,24.8,15.3,36.8c3,6,6.1,11.9,9.4,17.5l0,0c4,6.8,8.4,13.4,13.2,19.7
	c0.9,1.1,1.7,2.2,2.6,3.3c4.9,6.2,10.4,11.9,16.4,17l0,0c1.2,1,2.4,2,3.7,2.9c3.3,2.5,6.8,4.6,10.5,6.5c6.1,3.2,12.9,5,19.8,5.4
	c0.5,0,1.1,0,1.6,0v0.2h294v-0.2h0.2c1.7,0,3.4-0.3,5-0.9c10.4-3.7,20-18.5,27.9-37.2c1.8-4.1,3.4-8.5,5-13c1.4-3.9,2.8-8,4-12
	c3.7-11.9,6.8-23.9,9.3-36.1c2.8-13.9,4.3-26,4.3-33.7C635,212.8,635,211.9,634.9,211.1z"/>
<path class="st0" d="M359.9,82.5c-35-33.4-88-39.4-129.6-14.6C271.8,82.8,317.7,83.3,359.9,82.5z"/>
<path class="st0" d="M600.7,324.1l-45.4-78.6c-0.4-0.7-1.3-0.9-2-0.5c-0.2,0.1-0.4,0.3-0.5,0.5l-45.4,78.6c-0.4,0.7-0.2,1.6,0.5,2
	c0.2,0.1,0.5,0.2,0.7,0.2h13.5c0.8,0,1.4,0.6,1.5,1.4v16.8c0,0.8,0.6,1.4,1.4,1.4c0,0,0,0,0,0h17.7c0.8,0,1.5-0.6,1.5-1.5l0,0v-8.1
	c0-0.8,0.6-1.4,1.4-1.4c0,0,0,0,0,0h16.8c0.8,0,1.5,0.6,1.5,1.5l0,0v8.1c0,0.8,0.6,1.5,1.5,1.5l0,0H583c0.6,0,1.2-0.4,1.4-1
	c0.1-0.1,0.1-0.3,0.1-0.5v-16.8c0-0.8,0.7-1.4,1.5-1.4h13.5c0.8,0,1.5-0.6,1.5-1.4C600.9,324.5,600.9,324.3,600.7,324.1z
	 M537.5,332.8c-0.3,0.3-0.6,0.4-1,0.4h-6.4c-0.8,0-1.5-0.6-1.5-1.5l0,0c0-0.8,0.7-1.4,1.5-1.5h6.4c0.8,0,1.5,0.6,1.5,1.4v0
	C537.9,332.1,537.7,332.5,537.5,332.8L537.5,332.8z M579.1,332.8c-0.3,0.3-0.6,0.4-1,0.4h-6.4c-0.8,0-1.4-0.7-1.4-1.5
	c0-0.4,0.2-0.7,0.4-1c0.3-0.3,0.6-0.4,1-0.4h6.4c0.8,0,1.5,0.6,1.5,1.5l0,0C579.6,332.1,579.4,332.5,579.1,332.8L579.1,332.8z"/>
<path class="st0" d="M320.3,324.8l-45.4-78.6c-0.4-0.7-1.3-0.9-2-0.5c-0.2,0.1-0.4,0.3-0.5,0.5L233.2,314c4.9,6.2,10.4,11.9,16.4,17
	h6.4c0.8,0,1.5,0.6,1.5,1.4v0c0,0.8-0.7,1.4-1.5,1.5h-2.7c3.3,2.5,6.8,4.7,10.5,6.5V337c0-0.8,0.6-1.4,1.4-1.4c0,0,0,0,0,0h16.8
	c0.8,0,1.4,0.6,1.4,1.4v8.1c0,0.2,0,0.4,0.1,0.6c0.2,0.5,0.8,0.8,1.3,0.8h17.7c0.5,0,0.9-0.2,1.1-0.6c0.2-0.3,0.3-0.6,0.3-0.9v-16.7
	c0-0.8,0.6-1.5,1.4-1.5h0H319c0.8,0,1.5-0.6,1.5-1.4C320.5,325.2,320.4,325,320.3,324.8z M290.3,331.4c0.3-0.3,0.6-0.4,1-0.4h6.4
	c0.8,0,1.5,0.6,1.5,1.5l0,0c0,0.8-0.6,1.5-1.4,1.5h0h-6.4c-0.8,0-1.5-0.6-1.5-1.4v0C289.8,332,290,331.7,290.3,331.4L290.3,331.4z
	 M261.8,302.3c-0.8,0-1.4-0.6-1.4-1.4c0,0,0,0,0,0v-11c0-0.8,0.6-1.4,1.4-1.5c0,0,0,0,0,0h23.7c0.8,0,1.4,0.7,1.4,1.5v11
	c0,0.8-0.6,1.4-1.4,1.5H261.8z"/>
<path class="st0" d="M499.6,183.6h-56.2v-12.1c0-1.6-1.3-2.9-2.9-2.9l0,0h-16.5v-12.9c0-1-0.8-1.8-1.8-1.8c0,0,0,0,0,0H401
	c-1,0-1.8,0.8-1.8,1.8v12.9h-19.4c-1.6,0-2.9,1.3-2.9,2.9v12.1h-53.5c-0.3,0-0.6,0.2-0.6,0.6c0,0,0,0,0,0v161.2
	c0,0.3,0.2,0.6,0.6,0.6c0,0,0,0,0,0H359c0.3,0,0.6-0.2,0.6-0.6c0,0,0,0,0,0v-21.7c0-0.3,0.3-0.6,0.6-0.6h15c0.3,0,0.6,0.3,0.6,0.6
	v21.7c0,0.3,0.2,0.6,0.6,0.6c0,0,0,0,0,0h70.3c0.3,0,0.6-0.3,0.6-0.6l0,0v-21.7c0-0.3,0.3-0.6,0.6-0.6c0,0,0,0,0,0h15
	c0.3,0,0.6,0.3,0.6,0.6c0,0,0,0,0,0v21.7c0,0.3,0.3,0.6,0.6,0.6l0,0h35.6c0.3,0,0.6-0.3,0.6-0.6l0,0V184.2
	C500.2,183.8,500,183.6,499.6,183.6z M353.2,315.6c0,0.3-0.2,0.6-0.6,0.6c0,0,0,0,0,0h-22c-0.3,0-0.6-0.2-0.6-0.6c0,0,0,0,0,0v-7.5
	c0-0.3,0.3-0.6,0.6-0.6c0,0,0,0,0,0h22c0.3,0,0.6,0.3,0.6,0.6c0,0,0,0,0,0V315.6z M353.2,296.2c0,0.3-0.3,0.6-0.6,0.6h-22
	c-0.3,0-0.6-0.3-0.6-0.6v-7.5c0-0.3,0.3-0.6,0.6-0.6h22c0.3,0,0.6,0.3,0.6,0.6V296.2z M353.2,276.8c0,0.3-0.2,0.6-0.6,0.6
	c0,0,0,0,0,0h-22c-0.3,0-0.6-0.2-0.6-0.6c0,0,0,0,0,0v-7.5c0-0.3,0.2-0.6,0.6-0.6c0,0,0,0,0,0h22c0.3,0,0.6,0.2,0.6,0.6c0,0,0,0,0,0
	V276.8z M353.2,257.4c0,0.3-0.2,0.6-0.6,0.6c0,0,0,0,0,0h-22c-0.3,0-0.6-0.2-0.6-0.6c0,0,0,0,0,0v-7.5c0-0.3,0.2-0.6,0.6-0.6
	c0,0,0,0,0,0h22c0.3,0,0.6,0.2,0.6,0.6c0,0,0,0,0,0V257.4z M353.2,238c0,0.3-0.3,0.6-0.6,0.6h-22c-0.3,0-0.6-0.3-0.6-0.6v-7.5
	c0-0.3,0.3-0.6,0.6-0.6h22c0.3,0,0.6,0.3,0.6,0.6L353.2,238z M353.2,218.6c0,0.3-0.2,0.6-0.6,0.6c0,0,0,0,0,0h-22
	c-0.3,0-0.6-0.2-0.6-0.6c0,0,0,0,0,0v-7.5c0-0.3,0.2-0.6,0.6-0.6c0,0,0,0,0,0h22c0.3,0,0.6,0.2,0.6,0.6c0,0,0,0,0,0V218.6z
	 M353.2,199.2c0,0.3-0.2,0.6-0.6,0.6c0,0,0,0,0,0h-22c-0.3,0-0.6-0.2-0.6-0.6c0,0,0,0,0,0v-7.5c0-0.3,0.2-0.6,0.6-0.6c0,0,0,0,0,0
	h22c0.3,0,0.6,0.2,0.6,0.6c0,0,0,0,0,0V199.2z M405.3,315.6c0,0.3-0.2,0.6-0.6,0.6c0,0,0,0,0,0h-22c-0.3,0-0.6-0.2-0.6-0.6
	c0,0,0,0,0,0v-7.5c0-0.3,0.3-0.6,0.6-0.6c0,0,0,0,0,0h22c0.3,0,0.6,0.3,0.6,0.6c0,0,0,0,0,0V315.6z M405.3,296.2
	c0,0.3-0.3,0.6-0.6,0.6h-22c-0.3,0-0.6-0.3-0.6-0.6v-7.5c0-0.3,0.3-0.6,0.6-0.6h22c0.3,0,0.6,0.3,0.6,0.6V296.2z M405.3,276.8
	c0,0.3-0.2,0.6-0.6,0.6c0,0,0,0,0,0h-22c-0.3,0-0.6-0.2-0.6-0.6c0,0,0,0,0,0v-7.5c0-0.3,0.2-0.6,0.6-0.6c0,0,0,0,0,0h22
	c0.3,0,0.6,0.2,0.6,0.6c0,0,0,0,0,0V276.8z M405.3,257.4c0,0.3-0.2,0.6-0.6,0.6c0,0,0,0,0,0h-22c-0.3,0-0.6-0.2-0.6-0.6c0,0,0,0,0,0
	v-7.5c0-0.3,0.2-0.6,0.6-0.6c0,0,0,0,0,0h22c0.3,0,0.6,0.2,0.6,0.6c0,0,0,0,0,0V257.4z M405.3,238c0,0.3-0.3,0.6-0.6,0.6h-22
	c-0.3,0-0.6-0.3-0.6-0.6v-7.5c0-0.3,0.3-0.6,0.6-0.6h22c0.3,0,0.6,0.3,0.6,0.6V238z M405.3,218.6c0,0.3-0.2,0.6-0.6,0.6c0,0,0,0,0,0
	h-22c-0.3,0-0.6-0.2-0.6-0.6c0,0,0,0,0,0v-7.5c0-0.3,0.2-0.6,0.6-0.6c0,0,0,0,0,0h22c0.3,0,0.6,0.2,0.6,0.6c0,0,0,0,0,0V218.6z
	 M405.3,199.2c0,0.3-0.2,0.6-0.6,0.6c0,0,0,0,0,0h-22c-0.3,0-0.6-0.2-0.6-0.6c0,0,0,0,0,0v-7.5c0-0.3,0.2-0.6,0.6-0.6c0,0,0,0,0,0
	h22c0.3,0,0.6,0.2,0.6,0.6c0,0,0,0,0,0V199.2z M440.9,315.6c0,0.3-0.3,0.6-0.6,0.6l0,0h-22c-0.3,0-0.6-0.3-0.6-0.6v-7.5
	c0-0.3,0.3-0.6,0.6-0.6h22c0.3,0,0.6,0.3,0.6,0.6V315.6z M440.9,296.2c0,0.3-0.3,0.6-0.6,0.6h-22c-0.3,0-0.6-0.3-0.6-0.6v-7.5
	c0-0.3,0.3-0.6,0.6-0.6h22c0.3,0,0.6,0.3,0.6,0.6V296.2z M440.9,276.8c0,0.3-0.3,0.6-0.6,0.6l0,0h-22c-0.3,0-0.6-0.3-0.6-0.6v-7.5
	c0-0.3,0.3-0.6,0.6-0.6h22c0.3,0,0.6,0.3,0.6,0.6l0,0V276.8z M440.9,257.4c0,0.3-0.3,0.6-0.6,0.6l0,0h-22c-0.3,0-0.6-0.3-0.6-0.6
	v-7.5c0-0.3,0.3-0.6,0.6-0.6h22c0.3,0,0.6,0.3,0.6,0.6v0V257.4z M440.9,238c0,0.3-0.3,0.6-0.6,0.6h-22c-0.3,0-0.6-0.3-0.6-0.6v-7.5
	c0-0.3,0.3-0.6,0.6-0.6h22c0.3,0,0.6,0.3,0.6,0.6V238z M440.9,218.6c0,0.3-0.3,0.6-0.6,0.6l0,0h-22c-0.3,0-0.6-0.3-0.6-0.6v-7.5
	c0-0.3,0.3-0.6,0.6-0.6h22c0.3,0,0.6,0.3,0.6,0.6v0V218.6z M440.9,199.2c0,0.3-0.3,0.6-0.6,0.6l0,0h-22c-0.3,0-0.6-0.3-0.6-0.6v-7.5
	c0-0.3,0.3-0.6,0.6-0.6h22c0.3,0,0.6,0.3,0.6,0.6v0V199.2z M493,315.6c0,0.3-0.3,0.6-0.6,0.6l0,0h-22c-0.3,0-0.6-0.2-0.6-0.6
	c0,0,0,0,0,0v-7.5c0-0.3,0.3-0.6,0.6-0.6c0,0,0,0,0,0h22c0.3,0,0.6,0.3,0.6,0.6V315.6z M493,296.2c0,0.3-0.3,0.6-0.6,0.6h-22
	c-0.3,0-0.6-0.3-0.6-0.6l0,0v-7.5c0-0.3,0.3-0.6,0.6-0.6l0,0h22c0.3,0,0.6,0.3,0.6,0.6V296.2z M493,276.8c0,0.3-0.3,0.6-0.6,0.6l0,0
	h-22c-0.3,0-0.6-0.2-0.6-0.6c0,0,0,0,0,0v-7.5c0-0.3,0.2-0.6,0.6-0.6c0,0,0,0,0,0h22c0.3,0,0.6,0.3,0.6,0.6l0,0V276.8z M493,257.4
	c0,0.3-0.3,0.6-0.6,0.6l0,0h-22c-0.3,0-0.6-0.2-0.6-0.6c0,0,0,0,0,0v-7.5c0-0.3,0.2-0.6,0.6-0.6c0,0,0,0,0,0h22
	c0.3,0,0.6,0.3,0.6,0.6v0V257.4z M493,238c0,0.3-0.3,0.6-0.6,0.6h-22c-0.3,0-0.6-0.3-0.6-0.6v0v-7.5c0-0.3,0.3-0.6,0.6-0.6l0,0h22
	c0.3,0,0.6,0.3,0.6,0.6V238z M493,218.6c0,0.3-0.3,0.6-0.6,0.6l0,0h-22c-0.3,0-0.6-0.2-0.6-0.6c0,0,0,0,0,0v-7.5
	c0-0.3,0.2-0.6,0.6-0.6c0,0,0,0,0,0h22c0.3,0,0.6,0.3,0.6,0.6v0V218.6z M493,199.2c0,0.3-0.3,0.6-0.6,0.6l0,0h-22
	c-0.3,0-0.6-0.2-0.6-0.6c0,0,0,0,0,0v-7.5c0-0.3,0.2-0.6,0.6-0.6c0,0,0,0,0,0h22c0.3,0,0.6,0.3,0.6,0.6v0V199.2z"/>
<path class="st0" d="M339.7,139.9c-2.5-0.5-5-0.2-7.3,0.8c-2.8,1.3-6,1.3-8.8,0c-3.3-1.5-7.1-1.4-10.4,0.2c-0.9,0.5-2,0.8-3,0.8
	c-4.2,0-7.7-4.2-8.4-9.8c0.8-0.6,1.5-1.4,2.1-2.3c2.5-4,6.3-6.5,10.6-6.5s8.1,2.5,10.5,6.4c1.5,2.4,4.2,3.9,7,3.8h0.1
	C335.4,133.3,338.3,136,339.7,139.9z"/>
<path class="st0" d="M352.5,122.4l-6.8,4.3l4.1-7.5c-1.2-0.9-2.6-1.4-4.1-1.5h-0.1c-0.5,0-0.9,0-1.4-0.1l-2.3,1.5l1-1.8
	c-1.6-0.6-3-1.6-4-3l-4.1,2.6l2.6-4.7c-2.2-2.9-5.6-4.6-9.2-4.7c-4.3,0-8.1,2.5-10.6,6.5c-1.5,2.4-4.2,3.9-7,3.8h-0.2
	c-4.7,0-8.6,5.4-8.6,12s3.8,12,8.6,12c1,0,2.1-0.3,3-0.7c3.3-1.6,7-1.7,10.4-0.2c2.8,1.2,6,1.2,8.8,0c3.3-1.4,7-1.4,10.3,0.2
	c0.9,0.5,2,0.7,3,0.7c4.7,0,8.6-5.4,8.6-12C354.4,127.1,353.7,124.6,352.5,122.4z"/>
<path class="st3" d="M525.3,103h331.9c10.9,0,19.8,8.9,19.8,19.8v407.8c0,10.9-8.9,19.8-19.8,19.8H525.3c-10.9,0-19.8-8.9-19.8-19.8
	V122.8C505.5,111.8,514.3,103,525.3,103z"/>
<rect x="522" y="148.1" class="st4" width="336" height="357.2"/>
<circle class="st4" cx="691.2" cy="528.8" r="13.1"/>
<path class="st4" d="M691.2,135.2c-3.3,0-6-2.7-6-6s2.7-6,6-6s6,2.7,6,6S694.5,135.2,691.2,135.2z"/>
<path class="st4" d="M691.2,123.6c3.1,0,5.6,2.5,5.6,5.5c0,3.1-2.5,5.6-5.5,5.6c-3.1,0-5.6-2.5-5.6-5.5c0,0,0,0,0,0
	C685.7,126.1,688.2,123.6,691.2,123.6 M691.2,122.6c-3.6,0-6.6,2.9-6.6,6.5c0,3.6,2.9,6.6,6.5,6.6c3.6,0,6.6-2.9,6.6-6.5
	c0,0,0,0,0,0C697.8,125.5,694.9,122.6,691.2,122.6C691.2,122.6,691.2,122.6,691.2,122.6z"/>
<path class="st0" d="M824.2,333.3c0,0,0-0.1,0-0.1c-0.1-2.9-0.7-5.7-1.5-8.5l-0.2-0.5c-2.3-6.6-6.6-12.3-12.4-16.3
	c-13.4-9.1-31.5-6.9-42.3,5.2c-0.6-3.1-1.4-6.1-2.6-9c-8.5,1.1-17,1.4-25.6,1c5.2,2.4,10.7,4.3,16.2,5.8l-0.2,0.7
	c-6.2-1.7-12.3-3.9-18.1-6.7l-1.8-0.9l2,0.1c9.1,0.6,18.2,0.3,27.2-0.8c-2-4.7-4.7-9-8-12.7c-14.6-1.5-29.2-4.5-42.7-10.6l0.3-0.7
	c13.2,5.9,27.3,9,41.6,10.5c-17.2-18.5-46.1-19.5-64.6-2.3c-3.1,2.9-5.9,6.3-8.1,10c-1.4-13.1-6.8-25.5-15.6-35.3
	c-7.8,3.1-15.9,5.6-24.1,7.3c-12.4,2.6-25,3.6-37.7,3c5.2,2.4,10.7,4.4,16.2,5.9l-0.2,0.7c-6.2-1.7-12.3-4-18.1-6.8l-1.8-0.9l2,0.1
	c21.5,1.4,43.1-2,63.2-10c-0.8-0.8-1.5-1.6-2.3-2.4c-25,0.5-52.3,0.3-77-8.7c-18.6,11.5-29.9,31.8-29.9,53.6
	c0,11.8,3.3,28.1,8.9,44.4c2.5,7.3,5.4,14.4,8.8,21.3c1.7,3.5,3.5,6.9,5.5,10.2l0,0c2.3,4,4.9,7.8,7.7,11.5c0.5,0.7,1,1.3,1.5,1.9
	c2.8,3.6,6,6.9,9.5,9.9l0,0c0.7,0.6,1.4,1.2,2.1,1.7c1.9,1.4,4,2.7,6.1,3.8c3.6,1.9,7.5,3,11.6,3.2c0.3,0,0.6,0,1,0v0.1h170.9V412
	h0.1c1,0,2-0.2,2.9-0.5c6-2.2,11.6-10.8,16.2-21.6c1-2.4,2-4.9,2.9-7.5c0.8-2.3,1.6-4.6,2.3-7c2.1-6.9,3.9-13.9,5.4-21
	c1.4-6.4,2.3-13,2.5-19.6C824.2,334.3,824.2,333.8,824.2,333.3z"/>
<path class="st0" d="M664.3,258.5c-20.4-19.4-51.1-22.9-75.3-8.5C613.1,258.7,639.8,259,664.3,258.5z"/>
<path class="st0" d="M804.3,399l-26.4-45.7c-0.2-0.4-0.7-0.5-1.1-0.3c-0.1,0.1-0.2,0.2-0.3,0.3L750.1,399c-0.2,0.4-0.1,0.9,0.3,1.1
	c0.1,0.1,0.3,0.1,0.4,0.1h7.9c0.5,0,0.8,0.4,0.8,0.8v9.8c0,0.5,0.4,0.8,0.8,0.8h10.3c0.5,0,0.8-0.4,0.8-0.8v-4.7
	c0-0.5,0.4-0.8,0.8-0.8c0,0,0,0,0,0h9.8c0.5,0,0.8,0.4,0.8,0.8v0v4.7c0,0.5,0.4,0.8,0.8,0.8H794c0.4,0,0.7-0.2,0.8-0.6
	c0-0.1,0-0.2,0-0.3v-9.8c0-0.5,0.4-0.8,0.8-0.8h0h7.9c0.5,0,0.9-0.3,0.9-0.8C804.4,399.3,804.4,399.2,804.3,399z M767.5,404
	c-0.2,0.2-0.4,0.2-0.6,0.3h-3.7c-0.5,0-0.8-0.4-0.8-0.8c0-0.2,0.1-0.4,0.3-0.6c0.2-0.2,0.4-0.2,0.6-0.3h3.7c0.5,0,0.8,0.4,0.8,0.8
	C767.8,403.6,767.7,403.9,767.5,404L767.5,404z M791.8,404c-0.2,0.2-0.4,0.2-0.6,0.3h-3.7c-0.5-0.1-0.8-0.5-0.8-0.9
	c0-0.4,0.4-0.7,0.8-0.8h3.7c0.5,0,0.8,0.4,0.8,0.8C792,403.6,791.9,403.9,791.8,404L791.8,404z"/>
<path class="st0" d="M641.3,399.4l-26.4-45.7c-0.2-0.4-0.7-0.5-1.1-0.3c-0.1,0.1-0.2,0.2-0.3,0.3l-22.8,39.5c2.8,3.6,6,6.9,9.5,9.9
	h3.7c0.5,0,0.8,0.4,0.8,0.8c0,0.2-0.1,0.4-0.2,0.6c-0.2,0.2-0.4,0.3-0.6,0.3h-1.6c1.9,1.4,4,2.7,6.1,3.8v-2c0-0.5,0.4-0.8,0.8-0.8h0
	h9.8c0.5,0,0.8,0.4,0.8,0.8v4.7c0,0.1,0,0.2,0.1,0.3c0.1,0.3,0.4,0.5,0.8,0.5H631c0.3,0,0.5-0.1,0.7-0.3c0.1-0.1,0.2-0.3,0.2-0.5
	v-9.8c0-0.5,0.4-0.8,0.8-0.8h0h7.9c0.5,0,0.8-0.4,0.8-0.9C641.4,399.6,641.3,399.5,641.3,399.4z M623.8,403.2
	c0.2-0.2,0.4-0.2,0.6-0.2h3.7c0.5,0,0.8,0.4,0.8,0.8c0,0.2-0.1,0.5-0.3,0.6c-0.2,0.2-0.4,0.3-0.6,0.3h-3.7c-0.5,0-0.8-0.4-0.8-0.8
	C623.6,403.6,623.7,403.4,623.8,403.2z M607.3,386.3c-0.5,0-0.8-0.4-0.8-0.8c0,0,0,0,0,0v-6.4c0-0.5,0.4-0.8,0.8-0.8h0h13.8
	c0.5,0,0.8,0.4,0.8,0.8v6.4c0,0.5-0.4,0.8-0.8,0.8H607.3z"/>
<path class="st0" d="M745.5,317.3h-32.6v-7c0-0.9-0.8-1.7-1.7-1.7l0,0h-9.6V301c0-0.6-0.5-1.1-1.1-1.1h-12.3c-0.6,0-1.1,0.5-1.1,1
	c0,0,0,0,0,0v7.5h-11.3c-0.9,0-1.7,0.8-1.7,1.7l0,0v7h-31.1c-0.2,0-0.3,0.2-0.3,0.3v93.7c0,0.2,0.2,0.3,0.3,0.3h20.7
	c0.2,0,0.3-0.2,0.3-0.3v0v-12.6c0-0.2,0.2-0.3,0.3-0.3h8.7c0.2,0,0.3,0.2,0.3,0.3v12.6c0,0.2,0.2,0.3,0.3,0.3h0h40.9
	c0.2,0,0.3-0.2,0.3-0.3v0v-12.6c0-0.2,0.2-0.3,0.3-0.3h0h8.7c0.2,0,0.3,0.2,0.3,0.3v0v12.6c0,0.2,0.2,0.3,0.3,0.3h20.7
	c0.2,0,0.3-0.2,0.3-0.3v0v-93.7C745.9,317.5,745.7,317.3,745.5,317.3L745.5,317.3z M660.4,394c0,0.2-0.2,0.3-0.3,0.3h0h-12.8
	c-0.2,0-0.3-0.2-0.3-0.3v0v-4.4c0-0.2,0.2-0.3,0.3-0.3h0h12.8c0.2,0,0.3,0.2,0.3,0.3v0L660.4,394z M660.4,382.7
	c0,0.2-0.2,0.3-0.3,0.3h0h-12.8c-0.2,0-0.3-0.2-0.3-0.3v0v-4.4c0-0.2,0.2-0.3,0.3-0.3h0h12.8c0.2,0,0.3,0.2,0.3,0.3v0L660.4,382.7z
	 M660.4,371.5c0,0.2-0.2,0.3-0.3,0.3h0h-12.8c-0.2,0-0.3-0.2-0.3-0.3v0v-4.4c0-0.2,0.2-0.3,0.3-0.3h0h12.8c0.2,0,0.3,0.2,0.3,0.3v0
	L660.4,371.5z M660.4,360.2c0,0.2-0.2,0.3-0.3,0.3h-12.8c-0.2,0-0.3-0.2-0.3-0.3v-4.4c0-0.2,0.2-0.3,0.3-0.3l0,0h12.8
	c0.2,0,0.3,0.2,0.3,0.3v0L660.4,360.2z M660.4,348.9c0,0.2-0.2,0.3-0.3,0.3l0,0h-12.8c-0.2,0-0.3-0.2-0.3-0.3v0v-4.4
	c0-0.2,0.2-0.3,0.3-0.3l0,0h12.8c0.2,0,0.3,0.2,0.3,0.3l0,0L660.4,348.9z M660.4,337.6c0,0.2-0.2,0.3-0.3,0.3l0,0h-12.8
	c-0.2,0-0.3-0.2-0.3-0.3l0,0v-4.4c0-0.2,0.2-0.3,0.3-0.3l0,0h12.8c0.2,0,0.3,0.2,0.3,0.3v0L660.4,337.6z M660.4,326.4
	c0,0.2-0.2,0.3-0.3,0.3l0,0h-12.8c-0.2,0-0.3-0.2-0.3-0.3v0V322c0-0.2,0.2-0.3,0.3-0.3l0,0h12.8c0.2,0,0.3,0.2,0.3,0.3v0
	L660.4,326.4z M690.7,394c0,0.2-0.2,0.3-0.3,0.3h0h-12.8c-0.2,0-0.3-0.2-0.3-0.3v0v-4.4c0-0.2,0.2-0.3,0.3-0.3h0h12.8
	c0.2,0,0.3,0.2,0.3,0.3v0L690.7,394z M690.7,382.7c0,0.2-0.2,0.3-0.3,0.3h0h-12.8c-0.2,0-0.3-0.2-0.3-0.3v0v-4.4
	c0-0.2,0.2-0.3,0.3-0.3h0h12.8c0.2,0,0.3,0.2,0.3,0.3v0L690.7,382.7z M690.7,371.5c0,0.2-0.2,0.3-0.3,0.3h0h-12.8
	c-0.2,0-0.3-0.2-0.3-0.3v0v-4.4c0-0.2,0.2-0.3,0.3-0.3h0h12.8c0.2,0,0.3,0.2,0.3,0.3v0L690.7,371.5z M690.7,360.2
	c0,0.2-0.2,0.3-0.3,0.3h-12.8c-0.2,0-0.3-0.2-0.3-0.3v-4.4c0-0.2,0.2-0.3,0.3-0.3l0,0h12.8c0.2,0,0.3,0.2,0.3,0.3v0L690.7,360.2z
	 M690.7,348.9c0,0.2-0.2,0.3-0.3,0.3l0,0h-12.8c-0.2,0-0.3-0.2-0.3-0.3v0v-4.4c0-0.2,0.2-0.3,0.3-0.3l0,0h12.8
	c0.2,0,0.3,0.2,0.3,0.3l0,0L690.7,348.9z M690.7,337.6c0,0.2-0.2,0.3-0.3,0.3l0,0h-12.8c-0.2,0-0.3-0.2-0.3-0.3l0,0v-4.4
	c0-0.2,0.2-0.3,0.3-0.3l0,0h12.8c0.2,0,0.3,0.2,0.3,0.3v0L690.7,337.6z M690.7,326.4c0,0.2-0.2,0.3-0.3,0.3l0,0h-12.8
	c-0.2,0-0.3-0.2-0.3-0.3v0V322c0-0.2,0.2-0.3,0.3-0.3l0,0h12.8c0.2,0,0.3,0.2,0.3,0.3v0L690.7,326.4z M711.4,394
	c0,0.2-0.2,0.3-0.3,0.3h0h-12.8c-0.2,0-0.3-0.2-0.3-0.3v0v-4.4c0-0.2,0.2-0.3,0.3-0.3h0H711c0.2,0,0.3,0.2,0.3,0.3v0L711.4,394z
	 M711.4,382.7c0,0.2-0.2,0.3-0.3,0.3h0h-12.8c-0.2,0-0.3-0.2-0.3-0.3v0v-4.4c0-0.2,0.2-0.3,0.3-0.3h0H711c0.2,0,0.3,0.2,0.3,0.3v0
	L711.4,382.7z M711.4,371.5c0,0.2-0.2,0.3-0.3,0.3h0h-12.8c-0.2,0-0.3-0.2-0.3-0.3v0v-4.4c0-0.2,0.2-0.3,0.3-0.3h0H711
	c0.2,0,0.3,0.2,0.3,0.3v0L711.4,371.5z M711.4,360.2c0,0.2-0.2,0.3-0.3,0.3h-12.8c-0.2,0-0.3-0.2-0.3-0.3v-4.4
	c0-0.2,0.2-0.3,0.3-0.3l0,0H711c0.2,0,0.3,0.2,0.3,0.3v0L711.4,360.2z M711.4,348.9c0,0.2-0.2,0.3-0.3,0.3l0,0h-12.8
	c-0.2,0-0.3-0.2-0.3-0.3v0v-4.4c0-0.2,0.2-0.3,0.3-0.3l0,0H711c0.2,0,0.3,0.2,0.3,0.3l0,0L711.4,348.9z M711.4,337.6
	c0,0.2-0.2,0.3-0.3,0.3l0,0h-12.8c-0.2,0-0.3-0.2-0.3-0.3l0,0v-4.4c0-0.2,0.2-0.3,0.3-0.3l0,0H711c0.2,0,0.3,0.2,0.3,0.3v0
	L711.4,337.6z M711.4,326.4c0,0.2-0.2,0.3-0.3,0.3l0,0h-12.8c-0.2,0-0.3-0.2-0.3-0.3v0V322c0-0.2,0.2-0.3,0.3-0.3l0,0H711
	c0.2,0,0.3,0.2,0.3,0.3v0L711.4,326.4z M741.7,394c0,0.2-0.2,0.3-0.3,0.3h-12.8c-0.2,0-0.3-0.2-0.3-0.3v0v-4.4
	c0-0.2,0.2-0.3,0.3-0.3h0h12.8c0.2,0,0.3,0.2,0.3,0.3v0L741.7,394z M741.7,382.7c0,0.2-0.2,0.3-0.3,0.3h0h-12.8
	c-0.2,0-0.3-0.2-0.3-0.3v0v-4.4c0-0.2,0.2-0.3,0.3-0.3h0h12.8c0.2,0,0.3,0.2,0.3,0.3v0L741.7,382.7z M741.7,371.5
	c0,0.2-0.2,0.3-0.3,0.3h0h-12.8c-0.2,0-0.3-0.2-0.3-0.3v0v-4.4c0-0.2,0.2-0.3,0.3-0.3h0h12.8c0.2,0,0.3,0.2,0.3,0.3L741.7,371.5z
	 M741.7,360.2c0,0.2-0.2,0.3-0.3,0.3h-12.8c-0.2,0-0.3-0.2-0.3-0.3v-4.4c0-0.2,0.2-0.3,0.3-0.3l0,0h12.8c0.2,0,0.3,0.2,0.3,0.3v0
	L741.7,360.2z M741.7,348.9c0,0.2-0.2,0.3-0.3,0.3l0,0h-12.8c-0.2,0-0.3-0.2-0.3-0.3v0v-4.4c0-0.2,0.2-0.3,0.3-0.3l0,0h12.8
	c0.2,0,0.3,0.2,0.3,0.3L741.7,348.9z M741.7,337.6c0,0.2-0.2,0.3-0.3,0.3h-12.8c-0.2,0-0.3-0.2-0.3-0.3l0,0v-4.4
	c0-0.2,0.2-0.3,0.3-0.3l0,0h12.8c0.2,0,0.3,0.2,0.3,0.3v0L741.7,337.6z M741.7,326.4c0,0.2-0.2,0.3-0.3,0.3l0,0h-12.8
	c-0.2,0-0.3-0.2-0.3-0.3v0V322c0-0.2,0.2-0.3,0.3-0.3l0,0h12.8c0.2,0,0.3,0.2,0.3,0.3v0L741.7,326.4z"/>
<path class="st0" d="M652.6,291.9c-1.4-0.3-2.9-0.1-4.3,0.5c-0.8,0.4-1.7,0.5-2.5,0.5c-0.9,0-1.8-0.2-2.6-0.5
	c-1.9-0.8-4.1-0.8-6,0.1c-0.5,0.3-1.1,0.4-1.7,0.4c-2.4,0-4.5-2.5-4.9-5.7c0.5-0.4,0.9-0.8,1.2-1.3c1.7-3.4,5.8-4.7,9.2-3
	c1.3,0.7,2.4,1.7,3,3c0.9,1.4,2.4,2.2,4,2.2h0.1C650.1,288.1,651.7,289.6,652.6,291.9z"/>
<path class="st0" d="M660,281.7l-4,2.5l2.4-4.4c-0.7-0.5-1.5-0.8-2.4-0.8h0c-0.3,0-0.5,0-0.8-0.1l-1.3,0.8l0.6-1
	c-0.9-0.3-1.8-0.9-2.3-1.8l-2.4,1.5l1.5-2.8c-1.3-1.7-3.3-2.7-5.4-2.7c-2.6,0.1-4.9,1.5-6.1,3.8c-0.9,1.4-2.4,2.2-4.1,2.2h-0.1
	c-2.8,0-5,3.1-5,7s2.2,7,5,7c0.6,0,1.2-0.2,1.7-0.4c1.9-0.9,4.1-1,6-0.1c0.8,0.4,1.7,0.5,2.6,0.5c0.9,0,1.7-0.2,2.5-0.5
	c1.9-0.8,4.1-0.8,6,0.1c0.5,0.3,1.1,0.4,1.7,0.4c2.8,0,5-3.1,5-7C661.1,284.5,660.7,283.1,660,281.7z"/>
<path class="st3" d="M990.9,269.2h0.8c1.3,0,2.3,1,2.3,2.3v39.6c0,1.3-1,2.3-2.3,2.3h-0.8c-1.3,0-2.3-1-2.3-2.3v-39.6
	C988.6,270.2,989.7,269.2,990.9,269.2z"/>
<path class="st3" d="M812,234.6L812,234.6c0.8,0,1.5,0.7,1.5,1.5v11.5c0,0.8-0.7,1.5-1.5,1.5h0c-0.8,0-1.5-0.7-1.5-1.5v-11.5
	C810.5,235.2,811.2,234.6,812,234.6z"/>
<path class="st3" d="M812.1,261.2L812.1,261.2c0.9,0,1.7,0.8,1.7,1.7v21.9c0,0.9-0.8,1.7-1.7,1.7h0c-0.9,0-1.7-0.8-1.7-1.7v-21.9
	C810.4,261.9,811.2,261.2,812.1,261.2z"/>
<path class="st3" d="M812.1,295.4L812.1,295.4c0.9,0,1.6,0.7,1.6,1.6v22.3c0,0.9-0.7,1.6-1.6,1.6h0c-0.9,0-1.6-0.7-1.6-1.6V297
	C810.5,296.1,811.2,295.4,812.1,295.4z"/>
<path class="st3" d="M830.8,186.5H973c10.2,0,18.5,8.3,18.5,18.5v327.3c0,10.2-8.3,18.5-18.5,18.5H830.8c-10.2,0-18.5-8.3-18.5-18.5
	V205C812.3,194.8,820.6,186.5,830.8,186.5z"/>
<path class="st6" d="M887.1,197.4h20c1.4,0,2.5,1.1,2.5,2.5v0c0,1.4-1.1,2.5-2.5,2.5h-20c-1.4,0-2.5-1.1-2.5-2.5v0
	C884.6,198.5,885.7,197.4,887.1,197.4z"/>
<circle class="st6" cx="916.3" cy="199.9" r="2.9"/>
<path class="st4" d="M966.2,196h-20.5v2.5c0,6.5-5.2,11.7-11.7,11.7h-65.5c-6.5,0-11.7-5.3-11.7-11.7V196h-19.3
	c-7.9,0-14.2,6.4-14.2,14.2v316.9c0,7.9,6.4,14.2,14.2,14.2h128.7c7.9,0,14.2-6.4,14.2-14.2c0,0,0,0,0,0V210.2
	C980.5,202.4,974.1,196,966.2,196z"/>
<path class="st0" d="M962.2,371.7L962.2,371.7c-0.1-1.3-0.3-2.6-0.7-3.8c0-0.1,0-0.1-0.1-0.2c-2.6-7.6-10.9-11.7-18.5-9.1
	c-2.4,0.8-4.5,2.2-6.2,4.1c-0.2-1.4-0.6-2.8-1.2-4.1c-3.8,0.5-7.7,0.6-11.5,0.4c2.4,1.1,4.8,2,7.3,2.7l-0.1,0.3
	c-2.8-0.8-5.6-1.8-8.2-3.1l-0.8-0.4l0.9,0.1c4.1,0.3,8.2,0.2,12.3-0.4c-0.9-2.1-2.1-4-3.6-5.8c-6.6-0.5-13.1-2.2-19.3-4.8l0.1-0.3
	c6,2.6,12.3,4.2,18.8,4.7c-7.8-8.3-20.8-8.8-29.2-1c-1.4,1.3-2.6,2.8-3.6,4.5c-0.6-5.9-3.1-11.5-7-15.9c-8.8,3.5-18.4,5.1-27.9,4.6
	c2.4,1.1,4.8,2,7.3,2.7l-0.1,0.3c-2.8-0.8-5.6-1.8-8.2-3.1l-0.8-0.4l0.9,0.1c9.7,0.6,19.4-0.9,28.5-4.5c-0.3-0.4-0.7-0.7-1-1.1
	c-11.3,0.2-23.6,0.1-34.7-3.9c-8.4,5.2-13.5,14.3-13.5,24.2c0,5.3,1.5,12.7,4,20c1.1,3.3,2.5,6.5,4,9.6c0.8,1.6,1.6,3.1,2.5,4.6l0,0
	c1,1.8,2.2,3.5,3.5,5.2l0.7,0.9c1.3,1.6,2.7,3.1,4.3,4.5l0,0c0.3,0.3,0.6,0.5,1,0.8c0.9,0.7,1.8,1.2,2.8,1.7
	c1.6,0.8,3.4,1.3,5.2,1.4h0.4v0h77.1v0h0.1c0.4,0,0.9-0.1,1.3-0.2c2.7-1,5.2-4.8,7.3-9.8c0.5-1.1,0.9-2.2,1.3-3.4s0.7-2.1,1.1-3.2
	c1-3.2,1.8-6.5,2.4-9.5c0.6-2.9,1-5.9,1.1-8.8C962.2,372.1,962.2,371.9,962.2,371.7z"/>
<path class="st0" d="M890.1,338c-9.2-8.8-23.1-10.3-34-3.8C867,338,879,338.2,890.1,338z"/>
<path class="st0" d="M953.2,401.3l-11.9-20.6c-0.1-0.2-0.3-0.2-0.5-0.1c-0.1,0-0.1,0.1-0.1,0.1l-11.9,20.6c-0.1,0.2,0,0.4,0.1,0.5
	c0.1,0,0.1,0.1,0.2,0.1h3.5c0.2,0,0.4,0.2,0.4,0.4l0,0v4.4c0,0.2,0.2,0.4,0.4,0.4l0,0h4.6c0.2,0,0.4-0.2,0.4-0.4l0,0v-2.1
	c0-0.2,0.2-0.4,0.4-0.4l0,0h4.4c0.2,0,0.4,0.2,0.4,0.4l0,0v2.1c0,0.2,0.2,0.4,0.4,0.4l0,0h4.6c0.2,0,0.3-0.1,0.4-0.3
	c0,0,0-0.1,0-0.1v-4.4c0-0.2,0.2-0.4,0.4-0.4l0,0h3.6c0.2,0,0.4-0.1,0.4-0.3C953.3,401.5,953.3,401.4,953.2,401.3z M936.6,403.6
	c-0.1,0.1-0.2,0.1-0.3,0.1h-1.7c-0.2,0-0.4-0.2-0.4-0.4l0,0c0-0.1,0-0.2,0.1-0.3c0.1-0.1,0.2-0.1,0.3-0.1h1.7c0.2,0,0.4,0.2,0.4,0.4
	l0,0C936.8,403.4,936.7,403.5,936.6,403.6L936.6,403.6z M947.6,403.6c-0.1,0.1-0.2,0.1-0.3,0.1h-1.7c-0.2,0-0.4-0.2-0.4-0.4l0,0
	c0-0.1,0-0.2,0.1-0.3c0.1-0.1,0.2-0.1,0.3-0.1h1.7c0.2,0,0.4,0.2,0.4,0.4l0,0C947.7,403.4,947.6,403.5,947.6,403.6L947.6,403.6z"/>
<path class="st0" d="M879.7,401.5l-11.9-20.6c-0.1-0.2-0.3-0.2-0.5-0.1c-0.1,0-0.1,0.1-0.1,0.1l-10.3,17.8c1.3,1.6,2.7,3.1,4.3,4.5
	h1.7c0.2,0,0.4,0.1,0.4,0.3c0,0.2-0.1,0.4-0.3,0.4c0,0-0.1,0-0.1,0h-0.7c0.9,0.7,1.8,1.2,2.8,1.7v-0.9c0-0.2,0.2-0.4,0.4-0.4l0,0
	h4.4c0.2,0,0.4,0.2,0.4,0.4v2.1c0,0.2,0.2,0.4,0.4,0.4h4.6c0.1,0,0.2-0.1,0.3-0.2c0-0.1,0.1-0.1,0.1-0.2v-4.4c0-0.2,0.2-0.4,0.4-0.4
	l0,0h3.5c0.2,0,0.4-0.2,0.4-0.4C879.7,401.6,879.7,401.5,879.7,401.5z M871.8,403.2c0.1-0.1,0.2-0.1,0.3-0.1h1.7
	c0.2,0,0.4,0.1,0.4,0.3c0,0.2-0.1,0.4-0.3,0.4c0,0-0.1,0-0.1,0h-1.7c-0.2,0-0.4-0.2-0.4-0.4l0,0
	C871.7,403.4,871.7,403.3,871.8,403.2z M864.3,395.6c-0.2,0-0.4-0.2-0.4-0.4l0,0v-2.9c0-0.2,0.2-0.4,0.4-0.4l0,0h6.2
	c0.2,0,0.4,0.2,0.4,0.4l0,0v2.9c0,0.2-0.2,0.4-0.4,0.4l0,0H864.3z"/>
<path class="st0" d="M926.7,364.5H912v-3.2c0-0.4-0.3-0.8-0.8-0.8l0,0h-4.3v-3.4c0-0.3-0.2-0.5-0.5-0.5h-5.6c-0.3,0-0.5,0.2-0.5,0.5
	v3.4h-5.1c-0.4,0-0.8,0.3-0.8,0.8l0,0v3.2h-14c-0.1,0-0.2,0.1-0.2,0.1v0v42.3c0,0.1,0.1,0.2,0.2,0.2h9.3c0.1,0,0.2-0.1,0.2-0.2v-5.7
	c0-0.1,0.1-0.2,0.1-0.2h0h3.9c0.1,0,0.2,0.1,0.2,0.2v5.7c0,0.1,0.1,0.2,0.2,0.2h18.4c0.1,0,0.2-0.1,0.2-0.2v-5.7
	c0-0.1,0.1-0.2,0.1-0.2h0h3.9c0.1,0,0.2,0.1,0.2,0.2v5.7c0,0.1,0.1,0.2,0.2,0.2h9.3c0.1,0,0.2-0.1,0.2-0.2v-42.3
	C926.9,364.5,926.8,364.5,926.7,364.5C926.8,364.5,926.7,364.5,926.7,364.5z M888.3,399.1c0,0.1-0.1,0.2-0.2,0.2h-5.8
	c-0.1,0-0.2-0.1-0.2-0.2v-2c0-0.1,0.1-0.2,0.2-0.2h5.8c0.1,0,0.2,0.1,0.2,0.2V399.1z M888.3,394c0,0.1-0.1,0.2-0.2,0.2h-5.8
	c-0.1,0-0.2-0.1-0.2-0.2v-2c0-0.1,0.1-0.2,0.2-0.2h5.8c0.1,0,0.2,0.1,0.2,0.2V394z M888.3,388.9c0,0.1-0.1,0.2-0.2,0.2h-5.8
	c-0.1,0-0.2-0.1-0.2-0.2v-2c0-0.1,0.1-0.2,0.2-0.2h5.8c0.1,0,0.2,0.1,0.2,0.2V388.9z M888.3,383.8c0,0.1-0.1,0.2-0.2,0.2h-5.8
	c-0.1,0-0.2-0.1-0.2-0.2v-2c0-0.1,0.1-0.2,0.2-0.2h5.8c0.1,0,0.2,0.1,0.2,0.2V383.8z M888.3,378.7c0,0.1-0.1,0.2-0.2,0.2h-5.8
	c-0.1,0-0.2-0.1-0.2-0.2v-2c0-0.1,0.1-0.2,0.2-0.2h5.8c0.1,0,0.2,0.1,0.2,0.2V378.7z M888.3,373.6c0,0.1-0.1,0.2-0.2,0.2h-5.8
	c-0.1,0-0.2-0.1-0.2-0.2v-2c0-0.1,0.1-0.2,0.2-0.2h5.8c0.1,0,0.2,0.1,0.2,0.2V373.6z M888.3,368.6c0,0.1-0.1,0.2-0.2,0.2h-5.8
	c-0.1,0-0.2-0.1-0.2-0.2v-2c0-0.1,0.1-0.2,0.2-0.2h5.8c0.1,0,0.2,0.1,0.2,0.2V368.6z M902,399.1c0,0.1-0.1,0.2-0.2,0.2h-5.8
	c-0.1,0-0.2-0.1-0.2-0.2v-2c0-0.1,0.1-0.2,0.1-0.2h0h5.8c0.1,0,0.2,0.1,0.2,0.1v0V399.1z M902,394c0,0.1-0.1,0.2-0.1,0.2h0h-5.8
	c-0.1,0-0.2-0.1-0.2-0.1v0v-2c0-0.1,0.1-0.2,0.2-0.2h5.8c0.1,0,0.2,0.1,0.2,0.2V394z M902,388.9c0,0.1-0.1,0.2-0.2,0.2h-5.8
	c-0.1,0-0.2-0.1-0.2-0.2v-2c0-0.1,0.1-0.2,0.1-0.2h0h5.8c0.1,0,0.2,0.1,0.2,0.1v0V388.9z M902,383.8c0,0.1-0.1,0.2-0.2,0.2h-5.8
	c-0.1,0-0.2-0.1-0.2-0.2v-2c0-0.1,0.1-0.2,0.2-0.2h5.8c0.1,0,0.2,0.1,0.2,0.2V383.8z M902,378.7c0,0.1-0.1,0.2-0.1,0.2h0h-5.8
	c-0.1,0-0.2-0.1-0.2-0.1v0v-2c0-0.1,0.1-0.2,0.1-0.2h0h5.8c0.1,0,0.2,0.1,0.2,0.1v0V378.7z M902,373.6c0,0.1-0.1,0.2-0.2,0.2h-5.8
	c-0.1,0-0.2-0.1-0.2-0.2v-2c0-0.1,0.1-0.2,0.1-0.2h0h5.8c0.1,0,0.2,0.1,0.2,0.1v0V373.6z M902,368.6c0,0.1-0.1,0.2-0.1,0.2h0h-5.8
	c-0.1,0-0.2-0.1-0.2-0.1v0v-2c0-0.1,0.1-0.2,0.2-0.2h5.8c0.1,0,0.2,0.1,0.2,0.2V368.6z M911.3,399.1c0,0.1-0.1,0.2-0.2,0.2h-5.8
	c-0.1,0-0.2-0.1-0.2-0.2v-2c0-0.1,0.1-0.2,0.2-0.2h5.8c0.1,0,0.2,0.1,0.2,0.2V399.1z M911.3,394c0,0.1-0.1,0.2-0.2,0.2h-5.8
	c-0.1,0-0.2-0.1-0.2-0.2v-2c0-0.1,0.1-0.2,0.2-0.2h5.8c0.1,0,0.2,0.1,0.2,0.2V394z M911.3,388.9c0,0.1-0.1,0.2-0.2,0.2h-5.8
	c-0.1,0-0.2-0.1-0.2-0.2v-2c0-0.1,0.1-0.2,0.2-0.2h5.8c0.1,0,0.2,0.1,0.2,0.2V388.9z M911.3,383.8c0,0.1-0.1,0.2-0.2,0.2h-5.8
	c-0.1,0-0.2-0.1-0.2-0.2v-2c0-0.1,0.1-0.2,0.2-0.2h5.8c0.1,0,0.2,0.1,0.2,0.2V383.8z M911.3,378.7c0,0.1-0.1,0.2-0.2,0.2h-5.8
	c-0.1,0-0.2-0.1-0.2-0.2v-2c0-0.1,0.1-0.2,0.2-0.2h5.8c0.1,0,0.2,0.1,0.2,0.2V378.7z M911.3,373.6c0,0.1-0.1,0.2-0.2,0.2h-5.8
	c-0.1,0-0.2-0.1-0.2-0.2v-2c0-0.1,0.1-0.2,0.2-0.2h5.8c0.1,0,0.2,0.1,0.2,0.2V373.6z M911.3,368.6c0,0.1-0.1,0.2-0.2,0.2h-5.8
	c-0.1,0-0.2-0.1-0.2-0.2v-2c0-0.1,0.1-0.2,0.2-0.2h5.8c0.1,0,0.2,0.1,0.2,0.2V368.6z M925,399.1c0,0.1-0.1,0.2-0.2,0.2h-5.8
	c-0.1,0-0.2-0.1-0.2-0.2v-2c0-0.1,0.1-0.2,0.1-0.2h0h5.8c0.1,0,0.2,0.1,0.2,0.1v0V399.1z M925,394c0,0.1-0.1,0.2-0.1,0.2h0h-5.8
	c-0.1,0-0.2-0.1-0.2-0.1v0v-2c0-0.1,0.1-0.2,0.2-0.2h5.8c0.1,0,0.2,0.1,0.2,0.2V394z M925,388.9c0,0.1-0.1,0.2-0.2,0.2h-5.8
	c-0.1,0-0.2-0.1-0.2-0.2v-2c0-0.1,0.1-0.2,0.1-0.2h0h5.8c0.1,0,0.2,0.1,0.2,0.1v0V388.9z M925,383.8c0,0.1-0.1,0.2-0.2,0.2h-5.8
	c-0.1,0-0.2-0.1-0.2-0.2v-2c0-0.1,0.1-0.2,0.2-0.2h5.8c0.1,0,0.2,0.1,0.2,0.2V383.8z M925,378.7c0,0.1-0.1,0.2-0.1,0.2h0h-5.8
	c-0.1,0-0.2-0.1-0.2-0.1v0v-2c0-0.1,0.1-0.2,0.1-0.2h0h5.8c0.1,0,0.2,0.1,0.2,0.1v0V378.7z M925,373.6c0,0.1-0.1,0.2-0.2,0.2h-5.8
	c-0.1,0-0.2-0.1-0.2-0.2v-2c0-0.1,0.1-0.2,0.1-0.2h0h5.8c0.1,0,0.2,0.1,0.2,0.1v0V373.6z M925,368.6c0,0.1-0.1,0.2-0.1,0.2h0h-5.8
	c-0.1,0-0.2-0.1-0.2-0.1v0v-2c0-0.1,0.1-0.2,0.2-0.2h5.8c0.1,0,0.2,0.1,0.2,0.2V368.6z"/>
<path class="st0" d="M884.8,353c-0.6-0.1-1.3,0-1.9,0.2c-0.4,0.2-0.8,0.2-1.2,0.2c-0.4,0-0.8-0.1-1.2-0.3c-0.9-0.4-1.9-0.4-2.7,0.1
	c-0.2,0.1-0.5,0.2-0.8,0.2c-1.1,0-2-1.1-2.2-2.6c0.2-0.2,0.4-0.4,0.5-0.6c0.8-1.5,2.6-2.1,4.2-1.4c0.6,0.3,1.1,0.8,1.4,1.4
	c0.4,0.6,1.1,1,1.8,1l0,0C883.7,351.4,884.5,352.1,884.8,353z"/>
<path class="st0" d="M888.1,348.4l-1.8,1.1l1.1-2c-0.3-0.2-0.7-0.4-1.1-0.4l0,0c-0.1,0-0.2,0-0.4,0l-0.6,0.4l0.3-0.5
	c-0.4-0.2-0.8-0.4-1-0.8l-1.1,0.7l0.7-1.2c-0.6-0.7-1.5-1.2-2.4-1.2c-1.2,0.1-2.2,0.7-2.8,1.7c-0.4,0.6-1.1,1-1.8,1h-0.1
	c-1.2,0-2.3,1.4-2.3,3.1c0,1.7,1,3.1,2.3,3.1c0.3,0,0.5-0.1,0.8-0.2c0.9-0.4,1.9-0.4,2.7,0c0.7,0.3,1.6,0.3,2.3,0
	c0.9-0.4,1.8-0.4,2.7,0c0.2,0.1,0.5,0.2,0.8,0.2c1.2,0,2.3-1.4,2.3-3.1C888.6,349.7,888.5,349,888.1,348.4z"/>
<path class="st3" d="M99.6,540.6c0,2.6-0.3,5.2-0.8,7.8c-0.1,0.5-0.2,1-0.3,1.4c-2.8,11.4-10.9,19.7-20.4,20.3c-0.3,0-0.6,0-1,0
	c-10.1,0-18.7-8.7-21.5-20.7c-0.1-0.3-0.1-0.6-0.2-1c-0.5-2.6-0.8-5.2-0.8-7.8c0-16.3,10.1-29.5,22.5-29.5S99.6,524.3,99.6,540.6z"
	/>
<path class="st2" d="M99.6,540.6c0,2.6-0.3,5.2-0.8,7.8c-0.1,0.5-0.2,1-0.3,1.4c-0.3,0-0.7,0-1,0c-2.5-0.1-4.9-0.5-7.4-1
	c-2.1,0.7-4.3,1.2-6.6,1.5c-1.7,0.3-3.4,0.4-5.1,0.5h-1.7c-2.1,0-4.1-0.1-6.2-0.4c-3.3-0.4-6.5-1.2-9.7-2.4c-1.7,0.6-3.5,1-5.2,1.4
	c-0.1-0.3-0.1-0.6-0.2-1c-0.5-2.6-0.8-5.2-0.8-7.8c0-16.3,10.1-29.5,22.5-29.5S99.6,524.3,99.6,540.6z"/>
<path class="st5" d="M147.6,485.7c0-7.2-1.7-14.2-4.9-20.6l-26.5,8.2l23.2-13.7c-7.9-11.4-20.5-18.6-34.4-19.6
	c-1.1-1.6-2.3-3.2-3.6-4.7l-38,11.8l31.2-18.3c-20-15.4-48.7-11.6-64.1,8.4c-3.6,4.8-6.3,10.2-7.9,16l32.6,37.5L20,465.2
	C-0.6,479.8-5.5,508.4,9.2,529c11.7,16.4,32.7,23.3,51.8,16.9c9.4,3.5,19.7,3.7,29.3,0.8c24.7,5.5,49.1-10.1,54.5-34.8
	c0.7-3.2,1.1-6.6,1.1-9.9c0-1,0-2-0.1-3C147,494.7,147.7,490.2,147.6,485.7z"/>
<path class="st2" d="M146.9,494.2c-14-2.6-28.3-2.8-42.3-0.5c-15.9,2.6-32.1,8.4-47.7,4.2c-9.1-2.5-17-8.2-25.9-11.4
	c-8.6-3-17.9-3.6-26.8-1.6c-9.7,23.3,1.3,50.1,24.6,59.9c10.2,4.3,21.6,4.7,32.1,1.2c9.4,3.5,19.7,3.7,29.3,0.8
	c24.7,5.5,49.1-10.1,54.5-34.8c0.7-3.2,1.1-6.6,1.1-9.9c0-1,0-2-0.1-3C146.2,497.5,146.6,495.8,146.9,494.2z"/>
<path class="st7" d="M493.7,206.1l-19-0.8c-4.3-0.2-9.3-0.1-12.2,3.1c-3.1,3.5-2.3,8.9-0.5,13.1s4.5,8.4,4.6,13
	c0.2,7.3-5.8,13.1-11.2,18c-5.4,4.9-11.2,11-10.4,18.3c0.6,5.7,5.1,10,9.6,13.6c6.8,5.4,14.1,10.1,21.8,14c4.4,2.2,9.2,4.3,14.1,4.3
	c4.4,0,8.6-1.4,12.7-2.9c7.1-2.6,14.5-5.3,19.9-10.6c2.8-2.8,5.1-6,6.9-9.5c9.3-17,11.8-38.3,4.2-56.1c-1.6-4-4-7.6-7-10.7
	c-8.1-7.7-20.5-8-31.6-7.9c-2-0.1-4.1,0.2-5.9,1c-1.8,1-3,3.2-2.2,5.1"/>
<path class="st8" d="M469.4,441.4c-0.7,20.1,0,40.3,2.2,60.3c0.3,2.3,0.5,4.6,1,6.8c1.3,7,3.9,13.7,6,20.5s3.6,14,2.6,21.1
	c4.4-0.5,8.8-0.8,13.2-1.1l0.1-3.4c0.1-6.5-2.4-12.9-1.8-19.4c0.6-6.1,2.6-12.1,2.5-18.3c-0.1-5.8-2-11.5-2.9-17.2
	c-0.5-3.8-0.8-7.7-0.8-11.6c-0.3-5.3-0.2-10.7,0.1-16c0.8-10.8,4.1-21.6,2.6-32.3C485.9,434.5,477.5,437.7,469.4,441.4z"/>
<path class="st3" d="M489.4,573.4c0.5,0,1,0,1.5-0.2c0.7-0.5,1.1-1.3,1.2-2.2c0.7-2.7,1.8-5.2,3.4-7.5c1.1-1.7,2.5-3.5,2.5-5.5
	c0-3.3-3.5-5.7-4.2-8.9c-0.1-1-0.3-2.1-0.6-3.1c-0.8-1.8-3-2.3-4.9-2.7c-2.6-0.5-5.9-0.8-7.1,1.5c-1.1,1.9,0.1,4.3,0.3,6.5
	c0.2,3-1.6,5.8-3.5,8.1c-2.3,2.7-8.2,9.2-4.6,13c1.3,1.4,4.3,0.9,6,1L489.4,573.4z"/>
<path class="st8" d="M528,441.4c0.7,20.1,0,40.3-2.3,60.3c-0.3,2.3-0.5,4.6-0.9,6.8c-1.3,7-3.9,13.7-6,20.5s-3.6,14-2.5,21.1
	c-4.4-0.5-8.8-0.8-13.2-1.1l-0.1-3.4c-0.1-6.5,2.4-12.9,1.8-19.4c-0.6-6.1-2.6-12.1-2.5-18.3c0.1-5.8,2-11.5,2.9-17.2
	c0.5-3.8,0.8-7.7,0.8-11.6c0.3-5.3,0.2-10.7-0.1-16c-0.8-10.8-4.1-21.6-2.6-32.3C511.5,434.5,519.9,437.7,528,441.4z"/>
<path class="st3" d="M508.1,573.4c-0.5,0-1,0-1.5-0.2c-0.7-0.5-1.1-1.3-1.2-2.2c-0.7-2.7-1.8-5.2-3.4-7.5c-1.1-1.7-2.5-3.5-2.5-5.5
	c0-3.3,3.5-5.7,4.2-8.9c0.1-1,0.3-2.1,0.6-3.1c0.8-1.8,3-2.3,4.9-2.7c2.6-0.5,5.9-0.8,7.1,1.5c1.1,1.9-0.1,4.3-0.3,6.5
	c-0.2,3,1.6,5.8,3.5,8.1c2.3,2.7,8.2,9.2,4.6,13c-1.3,1.4-4.3,0.9-6,1L508.1,573.4z"/>
<path class="st9" d="M480.7,262.1c0.3,1,0.4,2,0.3,3c-0.3,1-0.9,2-1.7,2.7c-2.9,2.9-6.3,5.2-10.2,6.8c-0.4,1.3,0.3,2.6,1.1,3.7
	c2.5,3.8,5.1,7.5,7.7,11.2c4.7,7.2,10.6,13.6,17.4,18.8l6-7.5c1.3-1.5,2.4-3.1,3.5-4.7c1.2-2,2.2-4.2,3.1-6.4l7.3-17
	c-4.4,0.9-8.9-1.1-12.7-3.6c-0.8-0.4-1.4-1-1.8-1.8c-0.3-0.7-0.4-1.4-0.4-2.2c-0.1-3.5-0.2-7.1-0.2-10.6c-5.3-0.7-10.6-1.1-16-1.3
	c-2.1,0-3.5-0.4-4,1.8C479.7,257,480.3,259.9,480.7,262.1z"/>
<circle class="st8" cx="492.3" cy="243.6" r="20.5"/>
<path class="st10" d="M489.8,300.6c-3.3-5.8-7.3-11.2-12-16c-1-0.9-1.9-2-2.5-3.3c-0.4-1-0.5-2.1-0.6-3.2l-0.4-5.3
	c0-0.3-0.1-0.6-0.3-0.8c-0.2-0.2-0.5-0.3-0.8-0.2c-1.3-0.2-2.5,0-3.7,0.5c-0.7,0.5-1.4,1.1-2,1.8c-2.3,2.4-5.5,3.5-8.5,4.7
	c-2.2,0.9-4.4,2-6.6,3.2c-1.7,0.9-3.4,2-4.2,3.8c-0.4,1.1-0.6,2.4-0.5,3.6L447,332c0.2,1.1-0.6,2.2-1.7,2.5c-0.9,0.4-1.7,1-2.3,1.8
	c-0.6,0.8-0.6,1.9-0.1,2.8c0.3,0.4,0.8,0.6,1.1,1c1,1.2,0.1,2.9-0.5,4.3c-1,1.8-1.3,3.8-1,5.8c0.4,2,1.9,3.6,3.9,4
	c0.8-2.5-1-5.4,0-7.9c0.7-1.4,1.9-2.4,3.4-2.8c2-0.8,4.1-1,6.2-0.7l1.2,4.4c4.3,15.7,1.3,32.7-2.6,48.5c-0.9,3.7-2.1,7.3-2.7,11.1
	c-1,5.6-1,11.4-1,17.1v15.6c0,1.9,0.1,4,1.6,5.3s4.1,1.1,5.2,2.8c0.6,1,0.5,2.3,1.1,3.3c0.4,0.7,1,1.2,1.7,1.5
	c5.2,2.8,11.6,1.2,14.9-3.7c1.1-1.7,1.7-3.8,3.3-5c1.8-1.4,4.4-1.4,6.7-1.3l13.6,0.7c2.3,0,4.7,0.3,6.9,0.9c2,0.7,4,1.6,5.9,2.5
	c4.3,1.9,9,2.8,13.8,2.5c1.3,0,2.6-0.3,3.7-0.9c1.3-0.8,2.2-2.2,3.6-2.7c1.6-0.6,3.7,0,4.9-1.2c0.7-0.9,1.1-2,1-3.2l0.6-13.4
	c0.6-13.8,1.1-28-3.4-41c-1.1-3.2-2.5-6.2-3.4-9.5c-0.7-3.4-1.3-6.8-1.6-10.2c-1.4-9.5-4.6-18.9-4-28.5c0-0.7,0.6-0.9,1.4-1
	c2.5-0.3,5.3,0.2,7.1,2c1.6,1.6,2.2,4,2.4,6.2c0.3,1.6,0,3.3-0.9,4.7l3.8-2.8c1.2-0.9,2.5-2.1,2.3-3.6c-0.7-4.4-0.5-9.3-1-13.7
	c-0.8-7.4-2-14.8-3.6-22.2c-0.6-2.1-1.1-4.2-1.4-6.3c-0.4-2.9-0.2-5.9-0.3-8.8c-0.3-4.2-1.3-8.2-3.1-12c-0.5-1.2-1.2-2.2-2-3.2
	c-1.1-1.1-2.4-2-3.9-2.7c-6.2-3.2-12.8-5.6-19.6-7.1c-1.3-0.3-2.9-0.5-4,0.3c-1.4,1.1-1.2,3.3-0.6,4.9c0.6,1.7,1.6,3.3,1.3,5.1
	s-1.8,3.1-3,4.5c-3.2,3.7-4.6,8.7-8,12.3C492.2,296.9,490.1,298.4,489.8,300.6z"/>
<path class="st7" d="M477.1,233.5c1.7,1.4,3.2,3.4,5.4,3.9c5.3,1.1,9.4-7.5,14.5-5.6c1.9,0.7,3,2.5,4.4,3.8c3.6,2.9,8.9,2.6,12-0.9
	c2.7-3.1,2.7-7.6,2.6-11.8c0.1-1.5-0.2-3-0.9-4.4c-0.5-0.7-1.1-1.4-1.8-1.9c-6-4.7-14.2-5.4-21.9-5.9c-1.7-0.2-3.4-0.1-5,0.2
	c-2.3,0.6-4.2,2.1-6,3.6c-3.4,2.9-11.8,8.3-12.9,12.9S473.7,230.7,477.1,233.5z"/>
<path class="st5" d="M455.7,295.1h69.1c1.4,0,2.6,1.2,2.6,2.6v75.2c0,1.4-1.2,2.6-2.6,2.6h-69.1c-1.4,0-2.6-1.2-2.6-2.6v-75.2
	C453.1,296.2,454.3,295.1,455.7,295.1z"/>
<path class="st4" d="M462.1,302h56.3c1.4,0,2.6,1.2,2.6,2.6v43.4c0,1.4-1.2,2.6-2.6,2.6h-56.3c-1.4,0-2.6-1.2-2.6-2.6v-43.4
	C459.5,303.2,460.7,302,462.1,302z"/>
<path class="st11" d="M513,327.5L513,327.5c0-0.5-0.1-1-0.3-1.5v-0.1c-1-2.9-4.1-4.4-7-3.5c-0.9,0.3-1.7,0.8-2.3,1.6
	c-0.1-0.5-0.2-1-0.4-1.5c-1.5,0.2-2.9,0.2-4.4,0.2c0.9,0.4,1.8,0.8,2.8,1v0.1c-1.1-0.3-2.1-0.7-3.1-1.2l-0.3-0.2h0.3
	c1.6,0.1,3.1,0.1,4.7-0.1c-0.3-0.8-0.8-1.5-1.4-2.2c-2.5-0.2-5-0.8-7.3-1.8l0.1-0.1c2.3,1,4.7,1.6,7.1,1.8
	c-2.9-3.2-7.9-3.3-11.1-0.4c-0.5,0.5-1,1.1-1.4,1.7c-0.2-2.2-1.2-4.4-2.7-6c-3.4,1.3-7,1.9-10.6,1.8c0.9,0.4,1.8,0.7,2.8,1v0.1
	c-1.1-0.3-2.1-0.7-3.1-1.2l-0.3-0.1h0.3c3.7,0.2,7.4-0.3,10.8-1.7c-0.1-0.1-0.3-0.3-0.4-0.4c-4.3,0.1-9,0-13.2-1.5
	c-3.2,2-5.1,5.4-5.1,9.2c0.1,2.6,0.6,5.2,1.5,7.6c0.4,1.2,0.9,2.5,1.5,3.7c0.3,0.6,0.6,1.2,0.9,1.7l0,0c0.4,0.7,0.8,1.4,1.3,2
	l0.3,0.3c0.5,0.6,1,1.2,1.6,1.7l0,0c0.1,0.1,0.2,0.2,0.4,0.3c0.3,0.2,0.7,0.5,1,0.7c0.6,0.3,1.3,0.5,2,0.5h0.2l0,0h29.3l0,0l0,0
	c0.2,0,0.3,0,0.5-0.1c1-0.4,2-1.8,2.8-3.7c0.2-0.4,0.3-0.8,0.5-1.3s0.3-0.8,0.4-1.2c0.4-1.2,0.7-2.5,0.9-3.6
	c0.2-1.1,0.4-2.2,0.4-3.4L513,327.5z"/>
<path class="st11" d="M485.7,314.7c-3.5-3.3-8.8-3.9-12.9-1.5C476.9,314.7,481.4,314.7,485.7,314.7z"/>
<path class="st11" d="M509.6,338.7l-4.5-7.8c0-0.1-0.1-0.1-0.2-0.1c0,0,0,0-0.1,0.1l-4.5,7.8c0,0.1,0,0.2,0.1,0.2c0,0,0,0,0.1,0h1.3
	c0.1,0,0.1,0.1,0.1,0.1l0,0v1.7c0,0.1,0.1,0.1,0.1,0.1l0,0h1.8c0.1,0,0.1-0.1,0.2-0.1v-0.8c0-0.1,0.1-0.1,0.1-0.1h1.7
	c0.1,0,0.2,0.1,0.2,0.1c0,0,0,0,0,0v0.8c0,0.1,0.1,0.1,0.1,0.1l0,0h1.8c0.1,0,0.1,0,0.1-0.1l0,0v-1.7c0-0.1,0.1-0.1,0.2-0.1h1.3
	c0.1,0,0.2,0,0.2-0.1C509.7,338.8,509.7,338.7,509.6,338.7z M503.3,339.6C503.3,339.6,503.3,339.6,503.3,339.6h-0.7
	c-0.1,0-0.1-0.1-0.1-0.1l0,0c0,0,0-0.1,0-0.1c0,0,0.1,0,0.1,0h0.6c0.1,0,0.1,0.1,0.1,0.2C503.4,339.5,503.4,339.5,503.3,339.6z
	 M507.5,339.6C507.4,339.6,507.4,339.6,507.5,339.6h-0.7c-0.1,0-0.1-0.1-0.1-0.1l0,0c0,0,0-0.1,0-0.1c0,0,0.1,0,0.1,0h0.6
	c0.1,0,0.1,0.1,0.1,0.2C507.5,339.5,507.5,339.5,507.5,339.6L507.5,339.6z"/>
<path class="st11" d="M481.7,338.8l-4.5-7.8c0-0.1-0.1-0.1-0.2-0.1c0,0,0,0-0.1,0.1l-3.9,6.7c0.5,0.6,1,1.2,1.6,1.7h0.6
	c0.1,0,0.2,0.1,0.2,0.1c0,0,0,0,0,0c0,0,0,0.1,0,0.1c0,0-0.1,0-0.1,0H475c0.3,0.2,0.7,0.5,1,0.7V340c0-0.1,0.1-0.1,0.1-0.2h1.7
	c0.1,0,0.1,0.1,0.1,0.2v0.8c0,0,0,0,0,0.1c0,0,0.1,0.1,0.1,0.1h1.8c0,0,0.1,0,0.1-0.1c0,0,0-0.1,0-0.1v-1.7c0-0.1,0.1-0.1,0.1-0.1
	l0,0h1.3c0.1,0.1,0.2,0,0.2,0C481.8,338.9,481.8,338.8,481.7,338.8z M478.7,339.4C478.7,339.4,478.8,339.4,478.7,339.4h0.7
	c0.1,0,0.2,0.1,0.2,0.1c0,0,0,0,0,0c0,0,0,0.1,0,0.1c0,0-0.1,0-0.1,0h-0.6c-0.1,0-0.1-0.1-0.2-0.1
	C478.7,339.5,478.7,339.5,478.7,339.4L478.7,339.4z M475.9,336.5c-0.1,0-0.2-0.1-0.2-0.1c0,0,0,0,0,0v-1.1c0-0.1,0.1-0.1,0.2-0.1
	h2.4c0.1,0,0.1,0.1,0.2,0.1v1.1c0,0.1-0.1,0.2-0.2,0.2l0,0H475.9z"/>
<path class="st11" d="M499.6,324.7H494v-1.2c0-0.2-0.1-0.3-0.3-0.3H492v-1.3c0-0.1-0.1-0.2-0.2-0.2h-2.1c-0.1,0-0.2,0.1-0.2,0.2v1.3
	h-1.9c-0.2,0-0.3,0.1-0.3,0.3v1.2H482c0,0-0.1,0-0.1,0.1v16.1c0,0,0,0.1,0.1,0h3.5c0,0,0.1,0,0.1,0v-2.2c0,0,0-0.1,0.1-0.1h1.5
	c0,0,0.1,0,0.1,0.1v2.2c0,0,0,0,0.1,0h7c0,0,0.1,0,0.1,0v-2.2v-0.1h1.5c0,0,0.1,0,0.1,0.1v2.2c0,0,0,0.1,0.1,0h3.5c0,0,0.1,0,0.1,0
	L499.6,324.7C499.6,324.8,499.6,324.7,499.6,324.7z M485,337.9C485,337.9,485,337.9,485,337.9l-2.3,0.1c0,0-0.1,0-0.1-0.1v-0.8
	c0,0,0-0.1,0.1-0.1h2.2c0,0,0.1,0,0.1,0.1V337.9z M485,335.9C485,336,485,336,485,335.9l-2.3,0.1c0,0-0.1,0-0.1-0.1v-0.8
	c0,0,0-0.1,0.1-0.1h2.2c0,0,0.1,0,0.1,0.1V335.9z M485,334C485,334,485,334.1,485,334l-2.3,0c0,0-0.1,0-0.1,0v-0.8
	c0,0,0-0.1,0.1-0.1h2.2c0,0,0.1,0,0.1,0.1V334z M485,332.1C485,332.1,485,332.1,485,332.1l-2.3,0.1c0,0-0.1,0-0.1-0.1v-0.7
	c0,0,0-0.1,0.1-0.1h2.2c0,0,0.1,0,0.1,0.1V332.1z M485,330.1C485,330.2,485,330.2,485,330.1l-2.3,0.1c0,0-0.1,0-0.1-0.1v-0.7
	c0,0,0-0.1,0.1-0.1h2.2c0,0,0.1,0,0.1,0.1V330.1z M485,328.2C485,328.2,485,328.3,485,328.2l-2.3,0.1c0,0-0.1,0-0.1-0.1v-0.8
	c0,0,0-0.1,0.1,0h2.2c0,0,0.1,0,0.1,0V328.2z M485,326.3C485,326.3,485,326.3,485,326.3l-2.3,0.1c0,0-0.1,0-0.1-0.1v-0.8
	c0,0,0-0.1,0.1-0.1h2.2c0,0,0.1,0,0.1,0.1V326.3z M490.2,337.9C490.2,337.9,490.2,337.9,490.2,337.9l-2.3,0.1c0,0-0.1,0-0.1-0.1
	v-0.8c0,0,0-0.1,0.1-0.1h2.2c0,0,0.1,0,0.1,0.1V337.9z M490.2,335.9C490.2,336,490.2,336,490.2,335.9l-2.3,0.1c0,0-0.1,0-0.1-0.1
	v-0.8c0,0,0-0.1,0.1-0.1h2.2c0,0,0.1,0,0.1,0.1V335.9z M490.2,334C490.2,334,490.2,334.1,490.2,334l-2.3,0c0,0-0.1,0-0.1,0v-0.8
	c0,0,0-0.1,0.1-0.1h2.2c0,0,0.1,0,0.1,0.1V334z M490.2,332.1C490.2,332.1,490.2,332.1,490.2,332.1l-2.3,0.1c0,0-0.1,0-0.1-0.1v-0.7
	c0,0,0-0.1,0.1-0.1h2.2c0,0,0.1,0,0.1,0.1V332.1z M490.2,330.1C490.2,330.2,490.2,330.2,490.2,330.1l-2.3,0.1c0,0-0.1,0-0.1-0.1
	v-0.7c0,0,0-0.1,0.1-0.1h2.2c0,0,0.1,0,0.1,0.1V330.1z M490.2,328.2C490.2,328.2,490.2,328.3,490.2,328.2l-2.3,0.1
	c0,0-0.1,0-0.1-0.1v-0.8c0,0,0-0.1,0.1,0h2.2c0,0,0.1,0,0.1,0V328.2z M490.2,326.3C490.2,326.3,490.2,326.3,490.2,326.3l-2.3,0.1
	c0,0-0.1,0-0.1-0.1v-0.8c0,0,0-0.1,0.1-0.1h2.2c0,0,0.1,0,0.1,0.1V326.3z M493.7,337.9C493.7,337.9,493.7,337.9,493.7,337.9
	l-2.3,0.1c0,0-0.1,0,0-0.1v-0.8c0,0,0-0.1,0-0.1h2.2c0,0,0.1,0,0.1,0.1V337.9z M493.7,335.9C493.7,336,493.7,336,493.7,335.9
	l-2.3,0.1c0,0-0.1,0,0-0.1v-0.8c0,0,0-0.1,0-0.1h2.2c0,0,0.1,0,0.1,0.1V335.9z M493.7,334C493.7,334,493.7,334.1,493.7,334l-2.3,0
	 M491.4,334v-0.8c0,0,0-0.1,0-0.1h2.2c0,0,0.1,0,0.1,0.1L491.4,334z M493.7,332.1C493.7,332.1,493.7,332.1,493.7,332.1
	C493.7,332.1,493.7,332.1,493.7,332.1l-2.3,0.1c0,0,0,0,0-0.1v-0.7c0,0,0-0.1,0-0.1h2.2c0,0,0.1,0,0.1,0c0,0,0,0,0,0V332.1z
	 M493.7,330.1C493.7,330.2,493.7,330.2,493.7,330.1C493.7,330.2,493.7,330.2,493.7,330.1l-2.3,0.1c0,0,0,0,0-0.1v-0.7
	c0,0,0-0.1,0-0.1h2.2c0,0,0.1,0,0.1,0c0,0,0,0,0,0V330.1z M493.7,328.2C493.7,328.2,493.7,328.3,493.7,328.2l-2.3,0.1
	c0,0-0.1,0,0-0.1v-0.8 M491.5,327.4h2.2c0,0,0.1,0,0.1,0L491.5,327.4z M493.7,326.3C493.7,326.3,493.7,326.3,493.7,326.3l-2.3,0.1
	c0,0-0.1,0,0-0.1v-0.8c0,0,0-0.1,0-0.1h2.2c0,0,0.1,0,0.1,0.1V326.3z M498.9,337.9C498.9,337.9,498.9,337.9,498.9,337.9l-2.3,0.1
	c0,0-0.1,0-0.1-0.1v-0.8c0,0,0-0.1,0.1-0.1h2.2c0,0,0.1,0,0.1,0.1V337.9z M498.9,335.9C498.9,336,498.9,336,498.9,335.9l-2.3,0.1
	c0,0-0.1,0-0.1-0.1v-0.8c0,0,0-0.1,0.1-0.1h2.2c0,0,0.1,0,0.1,0.1V335.9z M498.9,334C498.9,334,498.9,334.1,498.9,334l-2.3,0
	c0,0-0.1,0-0.1,0v-0.8c0,0,0-0.1,0.1-0.1h2.2c0,0,0.1,0,0.1,0.1V334z M498.9,332.1C498.9,332.1,498.9,332.1,498.9,332.1l-2.3,0.1
	c0,0-0.1,0-0.1-0.1v-0.7c0,0,0-0.1,0.1-0.1h2.2c0,0,0.1,0,0.1,0.1V332.1z M498.9,330.1C498.9,330.2,498.9,330.2,498.9,330.1
	l-2.3,0.1c0,0-0.1,0-0.1-0.1v-0.7c0,0,0-0.1,0.1-0.1h2.2c0,0,0.1,0,0.1,0.1V330.1z M498.9,328.2
	C498.9,328.2,498.9,328.3,498.9,328.2l-2.3,0.1c0,0-0.1,0-0.1-0.1v-0.8c0,0,0-0.1,0.1,0h2.2c0,0,0.1,0,0.1,0V328.2z M498.9,326.3
	C498.9,326.3,498.9,326.3,498.9,326.3l-2.3,0.1c0,0-0.1,0-0.1-0.1v-0.8c0,0,0-0.1,0.1-0.1h2.2c0,0,0.1,0,0.1,0.1V326.3z"/>
<path class="st0" d="M483.6,320.4c-0.2,0-0.5,0-0.7,0.1c-0.3,0.1-0.6,0.1-0.9,0c-0.3-0.1-0.7-0.1-1,0c-0.1,0.1-0.2,0.1-0.3,0.1
	c-0.4,0-0.8-0.4-0.8-1c0.1-0.1,0.2-0.1,0.2-0.2c0.2-0.4,0.6-0.6,1-0.6c0.4,0,0.8,0.3,1,0.6c0.1,0.2,0.4,0.4,0.7,0.4l0,0
	C483.2,319.7,483.6,320,483.6,320.4z"/>
<path class="st0" d="M484.9,318.6l-0.7,0.4l0.4-0.8c-0.1-0.1-0.3-0.1-0.4-0.1h-0.2l-0.2,0.1l0.1-0.2c-0.2-0.1-0.3-0.2-0.4-0.3
	l-0.4,0.3l0.3-0.5c-0.2-0.3-0.6-0.5-0.9-0.5c-0.4,0-0.8,0.3-1,0.6c-0.1,0.2-0.4,0.4-0.7,0.4l0,0c-0.5,0-0.8,0.5-0.8,1.2
	c0,0.7,0.4,1.2,0.8,1.2c0.1,0,0.2,0,0.3-0.1c0.3-0.1,0.7-0.1,1,0c0.1,0.1,0.3,0.1,0.4,0.1c0.2,0,0.3,0,0.4-0.1c0.3-0.1,0.7-0.1,1,0
	c0.1,0,0.2,0.1,0.3,0.1c0.5,0,0.8-0.5,0.8-1.2C485.1,319.1,485,318.9,484.9,318.6z"/>
<ellipse class="st8" cx="450.8" cy="350.7" rx="6.1" ry="10.3"/>
<ellipse class="st8" cx="531.8" cy="345.5" rx="6.2" ry="10.3"/>
</svg>
